<?xml version="1.0" encoding="UTF-8" standalone="no"?>
<!DOCTYPE svg PUBLIC "-//W3C//DTD SVG 1.1//EN"
 "http://www.w3.org/Graphics/SVG/1.1/DTD/svg11.dtd">
<!-- Generated by graphviz version 2.38.0 (20140413.2041)
 -->
<!-- Title: spiraljs Pages: 1 -->
<svg width="1134pt" height="476pt"
 viewBox="0.00 0.00 1134.29 476.00" xmlns="http://www.w3.org/2000/svg" xmlns:xlink="http://www.w3.org/1999/xlink">
<g id="graph0" class="graph" transform="scale(1 1) rotate(0) translate(4 472)">
<title>spiraljs</title>
<polygon fill="white" stroke="none" points="-4,4 -4,-472 1130.29,-472 1130.29,4 -4,4"/>
<!-- 0 -->
<g id="node1" class="node"><title>0</title>
<g id="a_node1"><a xlink:title="npm run clean&#45;build &amp; npm run clean&#45;dist &amp; npm run clean&#45;sites">
<ellipse fill="none" stroke="black" cx="163.046" cy="-234" rx="29.4969" ry="18"/>
<text text-anchor="middle" x="163.046" y="-230.3" font-family="Times,serif" font-size="14.00">clean</text>
</a>
</g>
</g>
<!-- 1 -->
<g id="node2" class="node"><title>1</title>
<g id="a_node2"><a xlink:title="trash build/">
<ellipse fill="none" stroke="black" cx="50.0456" cy="-162" rx="50.0912" ry="18"/>
<text text-anchor="middle" x="50.0456" y="-158.3" font-family="Times,serif" font-size="14.00">clean&#45;build</text>
</a>
</g>
</g>
<!-- 0&#45;&gt;1 -->
<g id="edge1" class="edge"><title>0&#45;&gt;1</title>
<path fill="none" stroke="black" d="M143.104,-220.647C126.4,-210.299 102.227,-195.325 82.7041,-183.231"/>
<polygon fill="black" stroke="black" points="84.4493,-180.195 74.105,-177.904 80.7629,-186.146 84.4493,-180.195"/>
</g>
<!-- 3 -->
<g id="node4" class="node"><title>3</title>
<g id="a_node4"><a xlink:title="trash dist/">
<ellipse fill="none" stroke="black" cx="163.046" cy="-162" rx="44.6926" ry="18"/>
<text text-anchor="middle" x="163.046" y="-158.3" font-family="Times,serif" font-size="14.00">clean&#45;dist</text>
</a>
</g>
</g>
<!-- 0&#45;&gt;3 -->
<g id="edge2" class="edge"><title>0&#45;&gt;3</title>
<path fill="none" stroke="black" d="M163.046,-215.697C163.046,-207.983 163.046,-198.712 163.046,-190.112"/>
<polygon fill="black" stroke="black" points="166.546,-190.104 163.046,-180.104 159.546,-190.104 166.546,-190.104"/>
</g>
<!-- 5 -->
<g id="node6" class="node"><title>5</title>
<g id="a_node6"><a xlink:title="npm run clean&#45;cover &amp; npm run clean&#45;tsdoc">
<ellipse fill="none" stroke="black" cx="274.046" cy="-162" rx="48.1917" ry="18"/>
<text text-anchor="middle" x="274.046" y="-158.3" font-family="Times,serif" font-size="14.00">clean&#45;sites</text>
</a>
</g>
</g>
<!-- 0&#45;&gt;5 -->
<g id="edge3" class="edge"><title>0&#45;&gt;5</title>
<path fill="none" stroke="black" d="M182.89,-220.485C199.255,-210.165 222.793,-195.321 241.851,-183.303"/>
<polygon fill="black" stroke="black" points="243.931,-186.129 250.522,-177.834 240.197,-180.208 243.931,-186.129"/>
</g>
<!-- 2 -->
<g id="node3" class="node"><title>2</title>
<g id="a_node3"><a xlink:title="trash docs/sites/coverage/">
<ellipse fill="none" stroke="black" cx="173.046" cy="-90" rx="51.9908" ry="18"/>
<text text-anchor="middle" x="173.046" y="-86.3" font-family="Times,serif" font-size="14.00">clean&#45;cover</text>
</a>
</g>
</g>
<!-- 4 -->
<g id="node5" class="node"><title>4</title>
<g id="a_node5"><a xlink:title="trash node_modules/">
<ellipse fill="none" stroke="black" cx="286.046" cy="-234" rx="75.2868" ry="18"/>
<text text-anchor="middle" x="286.046" y="-230.3" font-family="Times,serif" font-size="14.00">clean&#45;downloaded</text>
</a>
</g>
</g>
<!-- 5&#45;&gt;2 -->
<g id="edge4" class="edge"><title>5&#45;&gt;2</title>
<path fill="none" stroke="black" d="M252.13,-145.811C237.934,-135.972 219.244,-123.019 203.598,-112.175"/>
<polygon fill="black" stroke="black" points="205.48,-109.221 195.267,-106.401 201.492,-114.974 205.48,-109.221"/>
</g>
<!-- 6 -->
<g id="node7" class="node"><title>6</title>
<g id="a_node7"><a xlink:title="trash docs/sites/tsdoc/">
<ellipse fill="none" stroke="black" cx="294.046" cy="-90" rx="50.8918" ry="18"/>
<text text-anchor="middle" x="294.046" y="-86.3" font-family="Times,serif" font-size="14.00">clean&#45;tsdoc</text>
</a>
</g>
</g>
<!-- 5&#45;&gt;6 -->
<g id="edge5" class="edge"><title>5&#45;&gt;6</title>
<path fill="none" stroke="black" d="M278.887,-144.055C281.114,-136.261 283.811,-126.822 286.309,-118.079"/>
<polygon fill="black" stroke="black" points="289.728,-118.852 289.11,-108.275 282.997,-116.929 289.728,-118.852"/>
</g>
<!-- 7 -->
<g id="node8" class="node"><title>7</title>
<g id="a_node8"><a xlink:title="npm run test &amp;&amp; npm run remap&#45;istanbul&#45;json &amp;&amp; npm run remap&#45;istanbul&#45;html">
<ellipse fill="none" stroke="black" cx="767.046" cy="-378" rx="30.5947" ry="18"/>
<text text-anchor="middle" x="767.046" y="-374.3" font-family="Times,serif" font-size="14.00">cover</text>
</a>
</g>
</g>
<!-- 19 -->
<g id="node20" class="node"><title>19</title>
<g id="a_node20"><a xlink:title="trash docs/sites/coverage/ &amp;&amp; npm run jslint &amp;&amp; npm run jshint &amp;&amp; npm run dist">
<ellipse fill="none" stroke="black" cx="576.046" cy="-306" rx="41.6928" ry="18"/>
<text text-anchor="middle" x="576.046" y="-302.3" font-family="Times,serif" font-size="14.00">precover</text>
</a>
</g>
</g>
<!-- 7&#45;&gt;19 -->
<g id="edge33" class="edge"><title>7&#45;&gt;19</title>
<path fill="none" stroke="black" d="M743.035,-366.5C737.791,-364.289 732.252,-362.018 727.046,-360 706.713,-352.12 654.542,-333.977 617.222,-321.119"/>
<polygon fill="black" stroke="black" points="618.201,-317.755 607.606,-317.81 615.923,-324.374 618.201,-317.755"/>
</g>
<!-- 25 -->
<g id="node26" class="node"><title>25</title>
<g id="a_node26"><a xlink:title="remap&#45;istanbul &#45;&#45;input docs/sites/coverage/coverage&#45;remapped.json &#45;&#45;output docs/sites/coverage/remapped &#45;&#45;type html &#45;&#45;exclude node_modules">
<ellipse fill="none" stroke="black" cx="863.046" cy="-306" rx="83.3857" ry="18"/>
<text text-anchor="middle" x="863.046" y="-302.3" font-family="Times,serif" font-size="14.00">remap&#45;istanbul&#45;html</text>
</a>
</g>
</g>
<!-- 7&#45;&gt;25 -->
<g id="edge8" class="edge"><title>7&#45;&gt;25</title>
<path fill="none" stroke="black" d="M785.555,-363.503C798.795,-353.849 816.923,-340.631 832.316,-329.407"/>
<polygon fill="black" stroke="black" points="834.52,-332.132 840.538,-323.412 830.396,-326.476 834.52,-332.132"/>
</g>
<!-- 26 -->
<g id="node27" class="node"><title>26</title>
<g id="a_node27"><a xlink:title="remap&#45;istanbul &#45;&#45;input docs/sites/coverage/coverage.json &#45;&#45;output docs/sites/coverage/coverage&#45;remapped.json">
<ellipse fill="none" stroke="black" cx="1045.05" cy="-306" rx="81.4863" ry="18"/>
<text text-anchor="middle" x="1045.05" y="-302.3" font-family="Times,serif" font-size="14.00">remap&#45;istanbul&#45;json</text>
</a>
</g>
</g>
<!-- 7&#45;&gt;26 -->
<g id="edge7" class="edge"><title>7&#45;&gt;26</title>
<path fill="none" stroke="black" d="M794.718,-370.032C838.469,-359.016 924.688,-337.306 983.589,-322.475"/>
<polygon fill="black" stroke="black" points="984.682,-325.809 993.524,-319.973 982.972,-319.021 984.682,-325.809"/>
</g>
<!-- 27 -->
<g id="node28" class="node"><title>27</title>
<g id="a_node28"><a xlink:title="karma start karma.conf.js">
<ellipse fill="#fff2be" stroke="black" cx="735.046" cy="-306" rx="27" ry="18"/>
<text text-anchor="middle" x="735.046" y="-302.3" font-family="Times,serif" font-size="14.00">test</text>
</a>
</g>
</g>
<!-- 7&#45;&gt;27 -->
<g id="edge6" class="edge"><title>7&#45;&gt;27</title>
<path fill="none" stroke="black" d="M759.462,-360.411C755.676,-352.129 751.011,-341.925 746.777,-332.662"/>
<polygon fill="black" stroke="black" points="749.915,-331.11 742.575,-323.47 743.549,-334.02 749.915,-331.11"/>
</g>
<!-- 8 -->
<g id="node9" class="node"><title>8</title>
<g id="a_node9"><a xlink:title="cat src/*.css &gt; dist/spiral.css &amp;&amp; csslint &#45;&#45;config=.csslintrc &#45;&#45;format=compact dist/spiral.css">
<ellipse fill="none" stroke="black" cx="759.046" cy="-90" rx="33.2948" ry="18"/>
<text text-anchor="middle" x="759.046" y="-86.3" font-family="Times,serif" font-size="14.00">csslint</text>
</a>
</g>
</g>
<!-- 9 -->
<g id="node10" class="node"><title>9</title>
<g id="a_node10"><a xlink:title="browserify src/index.ts &#45;&#45;debug &#45;&#45;standalone spiral &#45;p [ tsify &#45;&#45;project . ] &gt; build/spiral&#45;with&#45;source&#45;maps.js">
<ellipse fill="none" stroke="black" cx="505.046" cy="-234" rx="27" ry="18"/>
<text text-anchor="middle" x="505.046" y="-230.3" font-family="Times,serif" font-size="14.00">dist</text>
</a>
</g>
</g>
<!-- 16 -->
<g id="node17" class="node"><title>16</title>
<g id="a_node17"><a xlink:title="npm run exorcist &amp;&amp; npm run uglifyjs &amp;&amp; npm run uglifycss &amp;&amp; npm run dts">
<ellipse fill="none" stroke="black" cx="505.046" cy="-162" rx="38.1938" ry="18"/>
<text text-anchor="middle" x="505.046" y="-158.3" font-family="Times,serif" font-size="14.00">postdist</text>
</a>
</g>
</g>
<!-- 9&#45;&gt;16 -->
<g id="edge30" class="edge"><title>9&#45;&gt;16</title>
<path fill="none" stroke="black" d="M505.046,-215.697C505.046,-207.983 505.046,-198.712 505.046,-190.112"/>
<polygon fill="black" stroke="black" points="508.546,-190.104 505.046,-180.104 501.546,-190.104 508.546,-190.104"/>
</g>
<!-- 20 -->
<g id="node21" class="node"><title>20</title>
<g id="a_node21"><a xlink:title="trash build/ &amp;&amp; mkdirp build &amp;&amp; trash dist/ &amp;&amp; mkdirp dist &amp;&amp; npm run tslint &amp;&amp; npm run csslint">
<ellipse fill="none" stroke="black" cx="777.046" cy="-162" rx="34.394" ry="18"/>
<text text-anchor="middle" x="777.046" y="-158.3" font-family="Times,serif" font-size="14.00">predist</text>
</a>
</g>
</g>
<!-- 9&#45;&gt;20 -->
<g id="edge34" class="edge"><title>9&#45;&gt;20</title>
<path fill="none" stroke="black" d="M525.661,-222.314C530.613,-220.015 535.947,-217.752 541.046,-216 606.902,-193.366 686.468,-177.816 734.347,-169.67"/>
<polygon fill="black" stroke="black" points="735.071,-173.097 744.357,-167.996 733.916,-166.193 735.071,-173.097"/>
</g>
<!-- 10 -->
<g id="node11" class="node"><title>10</title>
<g id="a_node11"><a xlink:title="tsc &#45;p . &#45;d &#45;&#45;outDir build &amp;&amp; dts&#45;bundle &#45;&#45;name spiral &#45;&#45;main build/index.d.ts">
<ellipse fill="none" stroke="black" cx="390.046" cy="-90" rx="27" ry="18"/>
<text text-anchor="middle" x="390.046" y="-86.3" font-family="Times,serif" font-size="14.00">dts</text>
</a>
</g>
</g>
<!-- 17 -->
<g id="node18" class="node"><title>17</title>
<g id="a_node18"><a xlink:title="mkdirp dist &amp;&amp; mv build/spiral.d.ts dist/">
<ellipse fill="none" stroke="black" cx="347.046" cy="-18" rx="35.9954" ry="18"/>
<text text-anchor="middle" x="347.046" y="-14.3" font-family="Times,serif" font-size="14.00">postdts</text>
</a>
</g>
</g>
<!-- 10&#45;&gt;17 -->
<g id="edge31" class="edge"><title>10&#45;&gt;17</title>
<path fill="none" stroke="black" d="M380.288,-73.1159C374.976,-64.4685 368.285,-53.5754 362.3,-43.833"/>
<polygon fill="black" stroke="black" points="365.279,-41.9958 357.063,-35.307 359.315,-45.6598 365.279,-41.9958"/>
</g>
<!-- 21 -->
<g id="node22" class="node"><title>21</title>
<g id="a_node22"><a xlink:title="trash build/">
<ellipse fill="none" stroke="black" cx="433.046" cy="-18" rx="32.4942" ry="18"/>
<text text-anchor="middle" x="433.046" y="-14.3" font-family="Times,serif" font-size="14.00">predts</text>
</a>
</g>
</g>
<!-- 10&#45;&gt;21 -->
<g id="edge35" class="edge"><title>10&#45;&gt;21</title>
<path fill="none" stroke="black" d="M399.803,-73.1159C405.115,-64.4685 411.806,-53.5754 417.791,-43.833"/>
<polygon fill="black" stroke="black" points="420.776,-45.6598 423.028,-35.307 414.812,-41.9958 420.776,-45.6598"/>
</g>
<!-- 11 -->
<g id="node12" class="node"><title>11</title>
<g id="a_node12"><a xlink:title="npm run tsdoc &amp;&amp; npm run cover">
<ellipse fill="none" stroke="black" cx="719.046" cy="-450" rx="48.1917" ry="18"/>
<text text-anchor="middle" x="719.046" y="-446.3" font-family="Times,serif" font-size="14.00">everything</text>
</a>
</g>
</g>
<!-- 11&#45;&gt;7 -->
<g id="edge10" class="edge"><title>11&#45;&gt;7</title>
<path fill="none" stroke="black" d="M730.421,-432.411C736.364,-423.744 743.751,-412.971 750.331,-403.375"/>
<polygon fill="black" stroke="black" points="753.314,-405.215 756.082,-394.988 747.54,-401.256 753.314,-405.215"/>
</g>
<!-- 28 -->
<g id="node29" class="node"><title>28</title>
<g id="a_node29"><a xlink:title="typedoc &#45;&#45;mode modules &#45;&#45;out docs/sites/tsdoc/ src/index.ts">
<ellipse fill="none" stroke="black" cx="689.046" cy="-378" rx="29.4969" ry="18"/>
<text text-anchor="middle" x="689.046" y="-374.3" font-family="Times,serif" font-size="14.00">tsdoc</text>
</a>
</g>
</g>
<!-- 11&#45;&gt;28 -->
<g id="edge9" class="edge"><title>11&#45;&gt;28</title>
<path fill="none" stroke="black" d="M711.783,-432.055C708.32,-423.973 704.098,-414.121 700.236,-405.112"/>
<polygon fill="black" stroke="black" points="703.397,-403.602 696.241,-395.789 696.963,-406.359 703.397,-403.602"/>
</g>
<!-- 12 -->
<g id="node13" class="node"><title>12</title>
<g id="a_node13"><a xlink:title="&lt;build/spiral&#45;with&#45;source&#45;maps.js exorcist dist/spiral.js.map &gt; dist/spiral.js">
<ellipse fill="none" stroke="black" cx="473.046" cy="-90" rx="38.1938" ry="18"/>
<text text-anchor="middle" x="473.046" y="-86.3" font-family="Times,serif" font-size="14.00">exorcist</text>
</a>
</g>
</g>
<!-- 13 -->
<g id="node14" class="node"><title>13</title>
<g id="a_node14"><a xlink:title="jshint test/*.js">
<ellipse fill="none" stroke="black" cx="581.046" cy="-234" rx="30.5947" ry="18"/>
<text text-anchor="middle" x="581.046" y="-230.3" font-family="Times,serif" font-size="14.00">jshint</text>
</a>
</g>
</g>
<!-- 14 -->
<g id="node15" class="node"><title>14</title>
<g id="a_node15"><a xlink:title="jslint test/*.js">
<ellipse fill="none" stroke="black" cx="658.046" cy="-234" rx="28.6953" ry="18"/>
<text text-anchor="middle" x="658.046" y="-230.3" font-family="Times,serif" font-size="14.00">jslint</text>
</a>
</g>
</g>
<!-- 15 -->
<g id="node16" class="node"><title>15</title>
<g id="a_node16"><a xlink:title="npm run tslint &amp;&amp; npm run jshint &amp;&amp; npm run jslint &amp;&amp; npm run csslint">
<ellipse fill="none" stroke="black" cx="663.046" cy="-306" rx="27" ry="18"/>
<text text-anchor="middle" x="663.046" y="-302.3" font-family="Times,serif" font-size="14.00">lint</text>
</a>
</g>
</g>
<!-- 15&#45;&gt;8 -->
<g id="edge14" class="edge"><title>15&#45;&gt;8</title>
<path fill="none" stroke="black" d="M674.103,-289.283C681.012,-279.001 689.759,-265.094 696.046,-252 718.069,-206.128 714.722,-191.073 734.046,-144 737.751,-134.974 742.189,-125.272 746.29,-116.668"/>
<polygon fill="black" stroke="black" points="749.514,-118.04 750.721,-107.514 743.214,-114.99 749.514,-118.04"/>
</g>
<!-- 15&#45;&gt;13 -->
<g id="edge12" class="edge"><title>15&#45;&gt;13</title>
<path fill="none" stroke="black" d="M646.845,-291.17C635.095,-281.14 618.991,-267.393 605.657,-256.01"/>
<polygon fill="black" stroke="black" points="607.654,-253.112 597.775,-249.282 603.109,-258.436 607.654,-253.112"/>
</g>
<!-- 15&#45;&gt;14 -->
<g id="edge13" class="edge"><title>15&#45;&gt;14</title>
<path fill="none" stroke="black" d="M661.81,-287.697C661.259,-279.983 660.596,-270.712 659.982,-262.112"/>
<polygon fill="black" stroke="black" points="663.471,-261.83 659.267,-252.104 656.489,-262.328 663.471,-261.83"/>
</g>
<!-- 29 -->
<g id="node30" class="node"><title>29</title>
<g id="a_node30"><a xlink:title="tslint &#45;&#45;config tslint.json ./src/**/*.ts">
<ellipse fill="none" stroke="black" cx="839.046" cy="-90" rx="28.6953" ry="18"/>
<text text-anchor="middle" x="839.046" y="-86.3" font-family="Times,serif" font-size="14.00">tslint</text>
</a>
</g>
</g>
<!-- 15&#45;&gt;29 -->
<g id="edge11" class="edge"><title>15&#45;&gt;29</title>
<path fill="none" stroke="black" d="M684.19,-294.432C718.511,-276.119 785.933,-235.099 820.046,-180 831.517,-161.471 836.143,-137.073 837.969,-118.508"/>
<polygon fill="black" stroke="black" points="841.474,-118.579 838.752,-108.34 834.495,-118.042 841.474,-118.579"/>
</g>
<!-- 16&#45;&gt;10 -->
<g id="edge18" class="edge"><title>16&#45;&gt;10</title>
<path fill="none" stroke="black" d="M482.599,-147.337C464.12,-136.089 437.831,-120.087 417.989,-108.009"/>
<polygon fill="black" stroke="black" points="419.74,-104.977 409.378,-102.768 416.1,-110.957 419.74,-104.977"/>
</g>
<!-- 16&#45;&gt;12 -->
<g id="edge15" class="edge"><title>16&#45;&gt;12</title>
<path fill="none" stroke="black" d="M497.299,-144.055C493.604,-135.973 489.101,-126.121 484.982,-117.112"/>
<polygon fill="black" stroke="black" points="488.061,-115.429 480.721,-107.789 481.695,-118.339 488.061,-115.429"/>
</g>
<!-- 30 -->
<g id="node31" class="node"><title>30</title>
<g id="a_node31"><a xlink:title="uglifycss dist/spiral.css &gt; dist/spiral.min.css">
<ellipse fill="none" stroke="black" cx="572.046" cy="-90" rx="42.4939" ry="18"/>
<text text-anchor="middle" x="572.046" y="-86.3" font-family="Times,serif" font-size="14.00">uglifycss</text>
</a>
</g>
</g>
<!-- 16&#45;&gt;30 -->
<g id="edge17" class="edge"><title>16&#45;&gt;30</title>
<path fill="none" stroke="black" d="M520.249,-145.116C528.987,-135.987 540.12,-124.355 549.824,-114.217"/>
<polygon fill="black" stroke="black" points="552.516,-116.466 556.902,-106.821 547.459,-111.625 552.516,-116.466"/>
</g>
<!-- 31 -->
<g id="node32" class="node"><title>31</title>
<g id="a_node32"><a xlink:title="uglifyjs dist/spiral.js &#45;&#45;output dist/spiral.min.js &#45;&#45;source&#45;map dist/spiral.min.js.map &#45;&#45;screw&#45;ie8 &#45;&#45;in&#45;source&#45;map dist/spiral.js.map &#45;&#45;source&#45;map&#45;url spiral.min.js.map">
<ellipse fill="none" stroke="black" cx="670.046" cy="-90" rx="37.8943" ry="18"/>
<text text-anchor="middle" x="670.046" y="-86.3" font-family="Times,serif" font-size="14.00">uglifyjs</text>
</a>
</g>
</g>
<!-- 16&#45;&gt;31 -->
<g id="edge16" class="edge"><title>16&#45;&gt;31</title>
<path fill="none" stroke="black" d="M532.663,-149.284C560.312,-137.554 603.013,-119.438 633.465,-106.519"/>
<polygon fill="black" stroke="black" points="635.048,-109.649 642.887,-102.522 632.315,-103.205 635.048,-109.649"/>
</g>
<!-- 18 -->
<g id="node19" class="node"><title>18</title>
<g id="a_node19"><a xlink:title="git log &#45;&#45;pretty=oneline &#45;&#45;max&#45;count 10">
<ellipse fill="#fff2be" stroke="black" cx="590.046" cy="-378" rx="51.1914" ry="18"/>
<text text-anchor="middle" x="590.046" y="-374.3" font-family="Times,serif" font-size="14.00">postversion</text>
</a>
</g>
</g>
<!-- 19&#45;&gt;9 -->
<g id="edge21" class="edge"><title>19&#45;&gt;9</title>
<path fill="none" stroke="black" d="M559.935,-289.116C550.189,-279.508 537.632,-267.128 526.988,-256.634"/>
<polygon fill="black" stroke="black" points="529.222,-253.921 519.644,-249.393 524.308,-258.906 529.222,-253.921"/>
</g>
<!-- 19&#45;&gt;13 -->
<g id="edge20" class="edge"><title>19&#45;&gt;13</title>
<path fill="none" stroke="black" d="M577.282,-287.697C577.833,-279.983 578.495,-270.712 579.109,-262.112"/>
<polygon fill="black" stroke="black" points="582.602,-262.328 579.824,-252.104 575.62,-261.83 582.602,-262.328"/>
</g>
<!-- 19&#45;&gt;14 -->
<g id="edge19" class="edge"><title>19&#45;&gt;14</title>
<path fill="none" stroke="black" d="M594.244,-289.465C605.933,-279.486 621.247,-266.413 633.942,-255.576"/>
<polygon fill="black" stroke="black" points="636.509,-257.987 641.842,-248.832 631.964,-252.663 636.509,-257.987"/>
</g>
<!-- 20&#45;&gt;8 -->
<g id="edge23" class="edge"><title>20&#45;&gt;8</title>
<path fill="none" stroke="black" d="M772.688,-144.055C770.684,-136.261 768.257,-126.822 766.009,-118.079"/>
<polygon fill="black" stroke="black" points="769.368,-117.089 763.488,-108.275 762.589,-118.832 769.368,-117.089"/>
</g>
<!-- 20&#45;&gt;29 -->
<g id="edge22" class="edge"><title>20&#45;&gt;29</title>
<path fill="none" stroke="black" d="M790.805,-145.465C799.107,-136.092 809.826,-123.99 819.051,-113.574"/>
<polygon fill="black" stroke="black" points="821.739,-115.818 825.75,-106.011 816.499,-111.177 821.739,-115.818"/>
</g>
<!-- 22 -->
<g id="node23" class="node"><title>22</title>
<g id="a_node23"><a xlink:title="npm run clean&#45;tsdoc &amp;&amp; mkdirp docs/sites/tsdoc">
<ellipse fill="none" stroke="black" cx="420.046" cy="-234" rx="40.0939" ry="18"/>
<text text-anchor="middle" x="420.046" y="-230.3" font-family="Times,serif" font-size="14.00">pretsdoc</text>
</a>
</g>
</g>
<!-- 22&#45;&gt;6 -->
<g id="edge24" class="edge"><title>22&#45;&gt;6</title>
<path fill="none" stroke="black" d="M405.837,-216.987C383.835,-192.191 341.376,-144.34 315.587,-115.276"/>
<polygon fill="black" stroke="black" points="318.041,-112.769 308.786,-107.612 312.805,-117.415 318.041,-112.769"/>
</g>
<!-- 23 -->
<g id="node24" class="node"><title>23</title>
<g id="a_node24"><a xlink:title="npm run purge &amp;&amp; npm install &amp;&amp; npm run dist &amp;&amp; npm run test">
<ellipse fill="#fff2be" stroke="black" cx="473.046" cy="-378" rx="48.1917" ry="18"/>
<text text-anchor="middle" x="473.046" y="-374.3" font-family="Times,serif" font-size="14.00">preversion</text>
</a>
</g>
</g>
<!-- 23&#45;&gt;9 -->
<g id="edge26" class="edge"><title>23&#45;&gt;9</title>
<path fill="none" stroke="black" d="M476.906,-359.871C482.383,-335.564 492.467,-290.819 498.958,-262.013"/>
<polygon fill="black" stroke="black" points="502.388,-262.714 501.172,-252.189 495.559,-261.175 502.388,-262.714"/>
</g>
<!-- 24 -->
<g id="node25" class="node"><title>24</title>
<g id="a_node25"><a xlink:title="npm run clean &amp; npm run clean&#45;downloaded">
<ellipse fill="none" stroke="black" cx="286.046" cy="-306" rx="30.5947" ry="18"/>
<text text-anchor="middle" x="286.046" y="-302.3" font-family="Times,serif" font-size="14.00">purge</text>
</a>
</g>
</g>
<!-- 23&#45;&gt;24 -->
<g id="edge25" class="edge"><title>23&#45;&gt;24</title>
<path fill="none" stroke="black" d="M440.044,-364.647C406.548,-352.108 354.897,-332.773 320.788,-320.005"/>
<polygon fill="black" stroke="black" points="321.826,-316.657 311.234,-316.429 319.372,-323.213 321.826,-316.657"/>
</g>
<!-- 23&#45;&gt;27 -->
<g id="edge27" class="edge"><title>23&#45;&gt;27</title>
<path fill="none" stroke="black" d="M508.803,-365.86C515.818,-363.809 523.141,-361.762 530.046,-360 604.457,-341.01 626.282,-348.56 699.046,-324 700.961,-323.353 702.909,-322.633 704.857,-321.863"/>
<polygon fill="black" stroke="black" points="706.649,-324.902 714.444,-317.726 703.875,-318.475 706.649,-324.902"/>
</g>
<!-- 24&#45;&gt;0 -->
<g id="edge28" class="edge"><title>24&#45;&gt;0</title>
<path fill="none" stroke="black" d="M264.901,-292.967C244.979,-281.629 214.943,-264.535 192.644,-251.844"/>
<polygon fill="black" stroke="black" points="194.336,-248.781 183.914,-246.876 190.874,-254.865 194.336,-248.781"/>
</g>
<!-- 24&#45;&gt;4 -->
<g id="edge29" class="edge"><title>24&#45;&gt;4</title>
<path fill="none" stroke="black" d="M286.046,-287.697C286.046,-279.983 286.046,-270.712 286.046,-262.112"/>
<polygon fill="black" stroke="black" points="289.546,-262.104 286.046,-252.104 282.546,-262.104 289.546,-262.104"/>
</g>
<!-- 28&#45;&gt;22 -->
<g id="edge36" class="edge"><title>28&#45;&gt;22</title>
<path fill="none" stroke="black" d="M666.149,-366.427C660.91,-364.173 655.327,-361.902 650.046,-360 595.653,-340.407 576.008,-351.298 525.046,-324 492.731,-306.691 461.442,-278.168 441.552,-258.087"/>
<polygon fill="black" stroke="black" points="443.989,-255.573 434.508,-250.844 438.971,-260.453 443.989,-255.573"/>
</g>
<!-- 32 -->
<g id="node33" class="node"><title>32</title>
<ellipse fill="#fff2be" stroke="black" cx="560.046" cy="-450" rx="36.2938" ry="18"/>
<text text-anchor="middle" x="560.046" y="-446.3" font-family="Times,serif" font-size="14.00">version</text>
</g>
<!-- 32&#45;&gt;18 -->
<g id="edge32" class="edge"><title>32&#45;&gt;18</title>
<path fill="none" stroke="black" d="M567.308,-432.055C570.721,-424.091 574.87,-414.411 578.684,-405.51"/>
<polygon fill="black" stroke="black" points="581.92,-406.845 582.642,-396.275 575.486,-404.088 581.92,-406.845"/>
</g>
<!-- 32&#45;&gt;23 -->
<g id="edge37" class="edge"><title>32&#45;&gt;23</title>
<path fill="none" stroke="black" d="M541.595,-434.155C529.616,-424.517 513.793,-411.785 500.368,-400.983"/>
<polygon fill="black" stroke="black" points="502.359,-398.093 492.374,-394.552 497.971,-403.547 502.359,-398.093"/>
</g>
</g>
</svg>
