<?xml version="1.0" encoding="UTF-8" standalone="no"?>
<!DOCTYPE svg PUBLIC "-//W3C//DTD SVG 1.1//EN"
 "http://www.w3.org/Graphics/SVG/1.1/DTD/svg11.dtd">
<!-- Generated by graphviz version 2.38.0 (20140413.2041)
 -->
<!-- Title: spiraljs Pages: 1 -->
<svg width="1134pt" height="404pt"
 viewBox="0.00 0.00 1134.29 404.00" xmlns="http://www.w3.org/2000/svg" xmlns:xlink="http://www.w3.org/1999/xlink">
<g id="graph0" class="graph" transform="scale(1 1) rotate(0) translate(4 400)">
<title>spiraljs</title>
<polygon fill="white" stroke="none" points="-4,4 -4,-400 1130.29,-400 1130.29,4 -4,4"/>
<!-- 0 -->
<g id="node1" class="node"><title>0</title>
<g id="a_node1"><a xlink:title="npm run clean&#45;build &amp; npm run clean&#45;dist &amp; npm run clean&#45;sites">
<ellipse fill="none" stroke="black" cx="163.046" cy="-162" rx="29.4969" ry="18"/>
<text text-anchor="middle" x="163.046" y="-158.3" font-family="Times,serif" font-size="14.00">clean</text>
</a>
</g>
</g>
<!-- 1 -->
<g id="node2" class="node"><title>1</title>
<g id="a_node2"><a xlink:title="trash build/">
<ellipse fill="none" stroke="black" cx="50.0456" cy="-90" rx="50.0912" ry="18"/>
<text text-anchor="middle" x="50.0456" y="-86.3" font-family="Times,serif" font-size="14.00">clean&#45;build</text>
</a>
</g>
</g>
<!-- 0&#45;&gt;1 -->
<g id="edge1" class="edge"><title>0&#45;&gt;1</title>
<path fill="none" stroke="black" d="M143.104,-148.647C126.4,-138.299 102.227,-123.325 82.7041,-111.231"/>
<polygon fill="black" stroke="black" points="84.4493,-108.195 74.105,-105.904 80.7629,-114.146 84.4493,-108.195"/>
</g>
<!-- 3 -->
<g id="node4" class="node"><title>3</title>
<g id="a_node4"><a xlink:title="trash dist/">
<ellipse fill="none" stroke="black" cx="163.046" cy="-90" rx="44.6926" ry="18"/>
<text text-anchor="middle" x="163.046" y="-86.3" font-family="Times,serif" font-size="14.00">clean&#45;dist</text>
</a>
</g>
</g>
<!-- 0&#45;&gt;3 -->
<g id="edge2" class="edge"><title>0&#45;&gt;3</title>
<path fill="none" stroke="black" d="M163.046,-143.697C163.046,-135.983 163.046,-126.712 163.046,-118.112"/>
<polygon fill="black" stroke="black" points="166.546,-118.104 163.046,-108.104 159.546,-118.104 166.546,-118.104"/>
</g>
<!-- 5 -->
<g id="node6" class="node"><title>5</title>
<g id="a_node6"><a xlink:title="npm run clean&#45;cover &amp; npm run clean&#45;tsdoc">
<ellipse fill="none" stroke="black" cx="274.046" cy="-90" rx="48.1917" ry="18"/>
<text text-anchor="middle" x="274.046" y="-86.3" font-family="Times,serif" font-size="14.00">clean&#45;sites</text>
</a>
</g>
</g>
<!-- 0&#45;&gt;5 -->
<g id="edge3" class="edge"><title>0&#45;&gt;5</title>
<path fill="none" stroke="black" d="M182.89,-148.485C199.255,-138.165 222.793,-123.321 241.851,-111.303"/>
<polygon fill="black" stroke="black" points="243.931,-114.129 250.522,-105.834 240.197,-108.208 243.931,-114.129"/>
</g>
<!-- 2 -->
<g id="node3" class="node"><title>2</title>
<g id="a_node3"><a xlink:title="trash docs/sites/coverage/">
<ellipse fill="none" stroke="black" cx="218.046" cy="-18" rx="51.9908" ry="18"/>
<text text-anchor="middle" x="218.046" y="-14.3" font-family="Times,serif" font-size="14.00">clean&#45;cover</text>
</a>
</g>
</g>
<!-- 4 -->
<g id="node5" class="node"><title>4</title>
<g id="a_node5"><a xlink:title="trash typings/ node_modules/">
<ellipse fill="none" stroke="black" cx="286.046" cy="-162" rx="75.2868" ry="18"/>
<text text-anchor="middle" x="286.046" y="-158.3" font-family="Times,serif" font-size="14.00">clean&#45;downloaded</text>
</a>
</g>
</g>
<!-- 5&#45;&gt;2 -->
<g id="edge4" class="edge"><title>5&#45;&gt;2</title>
<path fill="none" stroke="black" d="M260.774,-72.411C253.87,-63.7805 245.295,-53.0622 237.643,-43.4972"/>
<polygon fill="black" stroke="black" points="240.202,-41.0922 231.222,-35.4699 234.735,-45.4651 240.202,-41.0922"/>
</g>
<!-- 6 -->
<g id="node7" class="node"><title>6</title>
<g id="a_node7"><a xlink:title="trash docs/sites/tsdoc/">
<ellipse fill="none" stroke="black" cx="339.046" cy="-18" rx="50.8918" ry="18"/>
<text text-anchor="middle" x="339.046" y="-14.3" font-family="Times,serif" font-size="14.00">clean&#45;tsdoc</text>
</a>
</g>
</g>
<!-- 5&#45;&gt;6 -->
<g id="edge5" class="edge"><title>5&#45;&gt;6</title>
<path fill="none" stroke="black" d="M289.121,-72.7646C297.289,-63.9689 307.541,-52.9283 316.626,-43.144"/>
<polygon fill="black" stroke="black" points="319.361,-45.3429 323.6,-35.6334 314.231,-40.5798 319.361,-45.3429"/>
</g>
<!-- 7 -->
<g id="node8" class="node"><title>7</title>
<g id="a_node8"><a xlink:title="npm run test &amp;&amp; npm run remap&#45;istanbul&#45;json &amp;&amp; npm run remap&#45;istanbul&#45;html">
<ellipse fill="none" stroke="black" cx="767.046" cy="-306" rx="30.5947" ry="18"/>
<text text-anchor="middle" x="767.046" y="-302.3" font-family="Times,serif" font-size="14.00">cover</text>
</a>
</g>
</g>
<!-- 17 -->
<g id="node18" class="node"><title>17</title>
<g id="a_node18"><a xlink:title="trash docs/sites/coverage/ &amp;&amp; npm run jslint &amp;&amp; npm run jshint &amp;&amp; npm run dist">
<ellipse fill="none" stroke="black" cx="576.046" cy="-234" rx="41.6928" ry="18"/>
<text text-anchor="middle" x="576.046" y="-230.3" font-family="Times,serif" font-size="14.00">precover</text>
</a>
</g>
</g>
<!-- 7&#45;&gt;17 -->
<g id="edge31" class="edge"><title>7&#45;&gt;17</title>
<path fill="none" stroke="black" d="M743.035,-294.5C737.791,-292.289 732.252,-290.018 727.046,-288 706.713,-280.12 654.542,-261.977 617.222,-249.119"/>
<polygon fill="black" stroke="black" points="618.201,-245.755 607.606,-245.81 615.923,-252.374 618.201,-245.755"/>
</g>
<!-- 22 -->
<g id="node23" class="node"><title>22</title>
<g id="a_node23"><a xlink:title="remap&#45;istanbul &#45;&#45;input docs/sites/coverage/coverage&#45;remapped.json &#45;&#45;output docs/sites/coverage/remapped &#45;&#45;type html &#45;&#45;exclude node_modules">
<ellipse fill="none" stroke="black" cx="863.046" cy="-234" rx="83.3857" ry="18"/>
<text text-anchor="middle" x="863.046" y="-230.3" font-family="Times,serif" font-size="14.00">remap&#45;istanbul&#45;html</text>
</a>
</g>
</g>
<!-- 7&#45;&gt;22 -->
<g id="edge8" class="edge"><title>7&#45;&gt;22</title>
<path fill="none" stroke="black" d="M785.555,-291.503C798.795,-281.849 816.923,-268.631 832.316,-257.407"/>
<polygon fill="black" stroke="black" points="834.52,-260.132 840.538,-251.412 830.396,-254.476 834.52,-260.132"/>
</g>
<!-- 23 -->
<g id="node24" class="node"><title>23</title>
<g id="a_node24"><a xlink:title="remap&#45;istanbul &#45;&#45;input docs/sites/coverage/coverage.json &#45;&#45;output docs/sites/coverage/coverage&#45;remapped.json">
<ellipse fill="none" stroke="black" cx="1045.05" cy="-234" rx="81.4863" ry="18"/>
<text text-anchor="middle" x="1045.05" y="-230.3" font-family="Times,serif" font-size="14.00">remap&#45;istanbul&#45;json</text>
</a>
</g>
</g>
<!-- 7&#45;&gt;23 -->
<g id="edge7" class="edge"><title>7&#45;&gt;23</title>
<path fill="none" stroke="black" d="M794.718,-298.032C838.469,-287.016 924.688,-265.306 983.589,-250.475"/>
<polygon fill="black" stroke="black" points="984.682,-253.809 993.524,-247.973 982.972,-247.021 984.682,-253.809"/>
</g>
<!-- 24 -->
<g id="node25" class="node"><title>24</title>
<g id="a_node25"><a xlink:title="karma start karma.conf.js">
<ellipse fill="#fff2be" stroke="black" cx="735.046" cy="-234" rx="27" ry="18"/>
<text text-anchor="middle" x="735.046" y="-230.3" font-family="Times,serif" font-size="14.00">test</text>
</a>
</g>
</g>
<!-- 7&#45;&gt;24 -->
<g id="edge6" class="edge"><title>7&#45;&gt;24</title>
<path fill="none" stroke="black" d="M759.462,-288.411C755.676,-280.129 751.011,-269.925 746.777,-260.662"/>
<polygon fill="black" stroke="black" points="749.915,-259.11 742.575,-251.47 743.549,-262.02 749.915,-259.11"/>
</g>
<!-- 8 -->
<g id="node9" class="node"><title>8</title>
<g id="a_node9"><a xlink:title="cat src/*.css &gt; dist/spiral.css &amp;&amp; csslint &#45;&#45;config=.csslintrc &#45;&#45;format=compact dist/spiral.css">
<ellipse fill="none" stroke="black" cx="745.046" cy="-18" rx="33.2948" ry="18"/>
<text text-anchor="middle" x="745.046" y="-14.3" font-family="Times,serif" font-size="14.00">csslint</text>
</a>
</g>
</g>
<!-- 9 -->
<g id="node10" class="node"><title>9</title>
<g id="a_node10"><a xlink:title="browserify src/index.ts &#45;&#45;debug &#45;&#45;standalone spiral &#45;p [ tsify &#45;&#45;project . ] &gt; build/spiral&#45;with&#45;source&#45;maps.js">
<ellipse fill="none" stroke="black" cx="505.046" cy="-162" rx="27" ry="18"/>
<text text-anchor="middle" x="505.046" y="-158.3" font-family="Times,serif" font-size="14.00">dist</text>
</a>
</g>
</g>
<!-- 15 -->
<g id="node16" class="node"><title>15</title>
<g id="a_node16"><a xlink:title="npm run exorcist &amp;&amp; npm run uglifyjs &amp;&amp; npm run uglifycss">
<ellipse fill="none" stroke="black" cx="538.046" cy="-90" rx="38.1938" ry="18"/>
<text text-anchor="middle" x="538.046" y="-86.3" font-family="Times,serif" font-size="14.00">postdist</text>
</a>
</g>
</g>
<!-- 9&#45;&gt;15 -->
<g id="edge29" class="edge"><title>9&#45;&gt;15</title>
<path fill="none" stroke="black" d="M512.866,-144.411C516.714,-136.249 521.442,-126.22 525.758,-117.065"/>
<polygon fill="black" stroke="black" points="528.954,-118.494 530.052,-107.956 522.622,-115.509 528.954,-118.494"/>
</g>
<!-- 18 -->
<g id="node19" class="node"><title>18</title>
<g id="a_node19"><a xlink:title="trash build/ &amp;&amp; mkdirp build &amp;&amp; trash dist/ &amp;&amp; mkdirp dist &amp;&amp; npm run tslint &amp;&amp; npm run csslint">
<ellipse fill="none" stroke="black" cx="777.046" cy="-90" rx="34.394" ry="18"/>
<text text-anchor="middle" x="777.046" y="-86.3" font-family="Times,serif" font-size="14.00">predist</text>
</a>
</g>
</g>
<!-- 9&#45;&gt;18 -->
<g id="edge32" class="edge"><title>9&#45;&gt;18</title>
<path fill="none" stroke="black" d="M525.661,-150.314C530.613,-148.015 535.947,-145.752 541.046,-144 606.902,-121.366 686.468,-105.816 734.347,-97.6696"/>
<polygon fill="black" stroke="black" points="735.071,-101.097 744.357,-95.9961 733.916,-94.1931 735.071,-101.097"/>
</g>
<!-- 10 -->
<g id="node11" class="node"><title>10</title>
<g id="a_node11"><a xlink:title="npm run tsdoc &amp;&amp; npm run cover">
<ellipse fill="none" stroke="black" cx="719.046" cy="-378" rx="48.1917" ry="18"/>
<text text-anchor="middle" x="719.046" y="-374.3" font-family="Times,serif" font-size="14.00">everything</text>
</a>
</g>
</g>
<!-- 10&#45;&gt;7 -->
<g id="edge10" class="edge"><title>10&#45;&gt;7</title>
<path fill="none" stroke="black" d="M730.421,-360.411C736.364,-351.744 743.751,-340.971 750.331,-331.375"/>
<polygon fill="black" stroke="black" points="753.314,-333.215 756.082,-322.988 747.54,-329.256 753.314,-333.215"/>
</g>
<!-- 25 -->
<g id="node26" class="node"><title>25</title>
<g id="a_node26"><a xlink:title="typedoc &#45;&#45;mode modules &#45;&#45;out docs/sites/tsdoc/ src/index.ts">
<ellipse fill="none" stroke="black" cx="689.046" cy="-306" rx="29.4969" ry="18"/>
<text text-anchor="middle" x="689.046" y="-302.3" font-family="Times,serif" font-size="14.00">tsdoc</text>
</a>
</g>
</g>
<!-- 10&#45;&gt;25 -->
<g id="edge9" class="edge"><title>10&#45;&gt;25</title>
<path fill="none" stroke="black" d="M711.783,-360.055C708.32,-351.973 704.098,-342.121 700.236,-333.112"/>
<polygon fill="black" stroke="black" points="703.397,-331.602 696.241,-323.789 696.963,-334.359 703.397,-331.602"/>
</g>
<!-- 11 -->
<g id="node12" class="node"><title>11</title>
<g id="a_node12"><a xlink:title="&lt;build/spiral&#45;with&#45;source&#45;maps.js exorcist dist/spiral.js.map &gt; dist/spiral.js">
<ellipse fill="none" stroke="black" cx="446.046" cy="-18" rx="38.1938" ry="18"/>
<text text-anchor="middle" x="446.046" y="-14.3" font-family="Times,serif" font-size="14.00">exorcist</text>
</a>
</g>
</g>
<!-- 12 -->
<g id="node13" class="node"><title>12</title>
<g id="a_node13"><a xlink:title="jshint test/*.js">
<ellipse fill="none" stroke="black" cx="581.046" cy="-162" rx="30.5947" ry="18"/>
<text text-anchor="middle" x="581.046" y="-158.3" font-family="Times,serif" font-size="14.00">jshint</text>
</a>
</g>
</g>
<!-- 13 -->
<g id="node14" class="node"><title>13</title>
<g id="a_node14"><a xlink:title="jslint test/*.js">
<ellipse fill="none" stroke="black" cx="658.046" cy="-162" rx="28.6953" ry="18"/>
<text text-anchor="middle" x="658.046" y="-158.3" font-family="Times,serif" font-size="14.00">jslint</text>
</a>
</g>
</g>
<!-- 14 -->
<g id="node15" class="node"><title>14</title>
<g id="a_node15"><a xlink:title="npm run tslint &amp;&amp; npm run jshint &amp;&amp; npm run jslint &amp;&amp; npm run csslint">
<ellipse fill="none" stroke="black" cx="663.046" cy="-234" rx="27" ry="18"/>
<text text-anchor="middle" x="663.046" y="-230.3" font-family="Times,serif" font-size="14.00">lint</text>
</a>
</g>
</g>
<!-- 14&#45;&gt;8 -->
<g id="edge14" class="edge"><title>14&#45;&gt;8</title>
<path fill="none" stroke="black" d="M674.295,-217.373C681.281,-207.127 690.041,-193.225 696.046,-180 716.555,-134.825 731.415,-78.7447 739.096,-46.1014"/>
<polygon fill="black" stroke="black" points="742.594,-46.5092 741.424,-35.9791 735.772,-44.9403 742.594,-46.5092"/>
</g>
<!-- 14&#45;&gt;12 -->
<g id="edge12" class="edge"><title>14&#45;&gt;12</title>
<path fill="none" stroke="black" d="M646.845,-219.17C635.095,-209.14 618.991,-195.393 605.657,-184.01"/>
<polygon fill="black" stroke="black" points="607.654,-181.112 597.775,-177.282 603.109,-186.436 607.654,-181.112"/>
</g>
<!-- 14&#45;&gt;13 -->
<g id="edge13" class="edge"><title>14&#45;&gt;13</title>
<path fill="none" stroke="black" d="M661.81,-215.697C661.259,-207.983 660.596,-198.712 659.982,-190.112"/>
<polygon fill="black" stroke="black" points="663.471,-189.83 659.267,-180.104 656.489,-190.328 663.471,-189.83"/>
</g>
<!-- 26 -->
<g id="node27" class="node"><title>26</title>
<g id="a_node27"><a xlink:title="tslint &#45;&#45;config tslint.json ./src/**/*.ts">
<ellipse fill="none" stroke="black" cx="831.046" cy="-18" rx="28.6953" ry="18"/>
<text text-anchor="middle" x="831.046" y="-14.3" font-family="Times,serif" font-size="14.00">tslint</text>
</a>
</g>
</g>
<!-- 14&#45;&gt;26 -->
<g id="edge11" class="edge"><title>14&#45;&gt;26</title>
<path fill="none" stroke="black" d="M684.455,-222.898C719.476,-205.122 788.286,-164.688 820.046,-108 830.542,-89.2656 832.921,-64.883 832.882,-46.3769"/>
<polygon fill="black" stroke="black" points="836.378,-46.1543 832.624,-36.247 829.38,-46.3331 836.378,-46.1543"/>
</g>
<!-- 15&#45;&gt;11 -->
<g id="edge15" class="edge"><title>15&#45;&gt;11</title>
<path fill="none" stroke="black" d="M518.535,-74.1548C505.483,-64.2245 488.117,-51.0106 473.654,-40.0062"/>
<polygon fill="black" stroke="black" points="475.606,-37.0937 465.528,-33.8238 471.367,-42.6645 475.606,-37.0937"/>
</g>
<!-- 27 -->
<g id="node28" class="node"><title>27</title>
<g id="a_node28"><a xlink:title="uglifycss dist/spiral.css &gt; dist/spiral.min.css">
<ellipse fill="none" stroke="black" cx="545.046" cy="-18" rx="42.4939" ry="18"/>
<text text-anchor="middle" x="545.046" y="-14.3" font-family="Times,serif" font-size="14.00">uglifycss</text>
</a>
</g>
</g>
<!-- 15&#45;&gt;27 -->
<g id="edge17" class="edge"><title>15&#45;&gt;27</title>
<path fill="none" stroke="black" d="M539.776,-71.6966C540.547,-63.9827 541.474,-54.7125 542.334,-46.1124"/>
<polygon fill="black" stroke="black" points="545.823,-46.403 543.335,-36.1043 538.857,-45.7064 545.823,-46.403"/>
</g>
<!-- 28 -->
<g id="node29" class="node"><title>28</title>
<g id="a_node29"><a xlink:title="uglifyjs dist/spiral.js &#45;&#45;output dist/spiral.min.js &#45;&#45;source&#45;map dist/spiral.min.js.map &#45;&#45;screw&#45;ie8 &#45;&#45;in&#45;source&#45;map dist/spiral.js.map &#45;&#45;source&#45;map&#45;url spiral.min.js.map">
<ellipse fill="none" stroke="black" cx="643.046" cy="-18" rx="37.8943" ry="18"/>
<text text-anchor="middle" x="643.046" y="-14.3" font-family="Times,serif" font-size="14.00">uglifyjs</text>
</a>
</g>
</g>
<!-- 15&#45;&gt;28 -->
<g id="edge16" class="edge"><title>15&#45;&gt;28</title>
<path fill="none" stroke="black" d="M559.294,-74.8345C574.807,-64.4925 596.043,-50.3347 613.25,-38.8637"/>
<polygon fill="black" stroke="black" points="615.45,-41.6037 621.829,-33.1445 611.567,-35.7793 615.45,-41.6037"/>
</g>
<!-- 16 -->
<g id="node17" class="node"><title>16</title>
<g id="a_node17"><a xlink:title="git log &#45;&#45;pretty=oneline &#45;&#45;max&#45;count 10">
<ellipse fill="#fff2be" stroke="black" cx="590.046" cy="-306" rx="51.1914" ry="18"/>
<text text-anchor="middle" x="590.046" y="-302.3" font-family="Times,serif" font-size="14.00">postversion</text>
</a>
</g>
</g>
<!-- 17&#45;&gt;9 -->
<g id="edge20" class="edge"><title>17&#45;&gt;9</title>
<path fill="none" stroke="black" d="M559.935,-217.116C550.189,-207.508 537.632,-195.128 526.988,-184.634"/>
<polygon fill="black" stroke="black" points="529.222,-181.921 519.644,-177.393 524.308,-186.906 529.222,-181.921"/>
</g>
<!-- 17&#45;&gt;12 -->
<g id="edge19" class="edge"><title>17&#45;&gt;12</title>
<path fill="none" stroke="black" d="M577.282,-215.697C577.833,-207.983 578.495,-198.712 579.109,-190.112"/>
<polygon fill="black" stroke="black" points="582.602,-190.328 579.824,-180.104 575.62,-189.83 582.602,-190.328"/>
</g>
<!-- 17&#45;&gt;13 -->
<g id="edge18" class="edge"><title>17&#45;&gt;13</title>
<path fill="none" stroke="black" d="M594.244,-217.465C605.933,-207.486 621.247,-194.413 633.942,-183.576"/>
<polygon fill="black" stroke="black" points="636.509,-185.987 641.842,-176.832 631.964,-180.663 636.509,-185.987"/>
</g>
<!-- 18&#45;&gt;8 -->
<g id="edge22" class="edge"><title>18&#45;&gt;8</title>
<path fill="none" stroke="black" d="M769.462,-72.411C765.731,-64.2493 761.146,-54.2203 756.961,-45.0653"/>
<polygon fill="black" stroke="black" points="760.138,-43.5958 752.797,-35.9562 753.771,-46.5061 760.138,-43.5958"/>
</g>
<!-- 18&#45;&gt;26 -->
<g id="edge21" class="edge"><title>18&#45;&gt;26</title>
<path fill="none" stroke="black" d="M789.299,-73.1159C796.203,-64.166 804.963,-52.8104 812.674,-42.8149"/>
<polygon fill="black" stroke="black" points="815.504,-44.8769 818.841,-34.8212 809.961,-40.6012 815.504,-44.8769"/>
</g>
<!-- 19 -->
<g id="node20" class="node"><title>19</title>
<g id="a_node20"><a xlink:title="npm run clean&#45;tsdoc &amp;&amp; mkdirp docs/sites/tsdoc">
<ellipse fill="none" stroke="black" cx="420.046" cy="-162" rx="40.0939" ry="18"/>
<text text-anchor="middle" x="420.046" y="-158.3" font-family="Times,serif" font-size="14.00">pretsdoc</text>
</a>
</g>
</g>
<!-- 19&#45;&gt;6 -->
<g id="edge23" class="edge"><title>19&#45;&gt;6</title>
<path fill="none" stroke="black" d="M410.595,-144.433C396.587,-119.875 370.193,-73.6039 353.675,-44.6459"/>
<polygon fill="black" stroke="black" points="356.682,-42.8538 348.687,-35.9017 350.601,-46.3222 356.682,-42.8538"/>
</g>
<!-- 20 -->
<g id="node21" class="node"><title>20</title>
<g id="a_node21"><a xlink:title="npm run purge &amp;&amp; npm install &amp;&amp; typings install &amp;&amp; npm run dist &amp;&amp; npm run test">
<ellipse fill="#fff2be" stroke="black" cx="473.046" cy="-306" rx="48.1917" ry="18"/>
<text text-anchor="middle" x="473.046" y="-302.3" font-family="Times,serif" font-size="14.00">preversion</text>
</a>
</g>
</g>
<!-- 20&#45;&gt;9 -->
<g id="edge25" class="edge"><title>20&#45;&gt;9</title>
<path fill="none" stroke="black" d="M476.906,-287.871C482.383,-263.564 492.467,-218.819 498.958,-190.013"/>
<polygon fill="black" stroke="black" points="502.388,-190.714 501.172,-180.189 495.559,-189.175 502.388,-190.714"/>
</g>
<!-- 21 -->
<g id="node22" class="node"><title>21</title>
<g id="a_node22"><a xlink:title="npm run clean &amp; npm run clean&#45;downloaded">
<ellipse fill="none" stroke="black" cx="286.046" cy="-234" rx="30.5947" ry="18"/>
<text text-anchor="middle" x="286.046" y="-230.3" font-family="Times,serif" font-size="14.00">purge</text>
</a>
</g>
</g>
<!-- 20&#45;&gt;21 -->
<g id="edge24" class="edge"><title>20&#45;&gt;21</title>
<path fill="none" stroke="black" d="M440.044,-292.647C406.548,-280.108 354.897,-260.773 320.788,-248.005"/>
<polygon fill="black" stroke="black" points="321.826,-244.657 311.234,-244.429 319.372,-251.213 321.826,-244.657"/>
</g>
<!-- 20&#45;&gt;24 -->
<g id="edge26" class="edge"><title>20&#45;&gt;24</title>
<path fill="none" stroke="black" d="M508.803,-293.86C515.818,-291.809 523.141,-289.762 530.046,-288 604.457,-269.01 626.282,-276.56 699.046,-252 700.961,-251.353 702.909,-250.633 704.857,-249.863"/>
<polygon fill="black" stroke="black" points="706.649,-252.902 714.444,-245.726 703.875,-246.475 706.649,-252.902"/>
</g>
<!-- 21&#45;&gt;0 -->
<g id="edge27" class="edge"><title>21&#45;&gt;0</title>
<path fill="none" stroke="black" d="M264.901,-220.967C244.979,-209.629 214.943,-192.535 192.644,-179.844"/>
<polygon fill="black" stroke="black" points="194.336,-176.781 183.914,-174.876 190.874,-182.865 194.336,-176.781"/>
</g>
<!-- 21&#45;&gt;4 -->
<g id="edge28" class="edge"><title>21&#45;&gt;4</title>
<path fill="none" stroke="black" d="M286.046,-215.697C286.046,-207.983 286.046,-198.712 286.046,-190.112"/>
<polygon fill="black" stroke="black" points="289.546,-190.104 286.046,-180.104 282.546,-190.104 289.546,-190.104"/>
</g>
<!-- 25&#45;&gt;19 -->
<g id="edge33" class="edge"><title>25&#45;&gt;19</title>
<path fill="none" stroke="black" d="M666.149,-294.427C660.91,-292.173 655.327,-289.902 650.046,-288 595.653,-268.407 576.008,-279.298 525.046,-252 492.731,-234.691 461.442,-206.168 441.552,-186.087"/>
<polygon fill="black" stroke="black" points="443.989,-183.573 434.508,-178.844 438.971,-188.453 443.989,-183.573"/>
</g>
<!-- 29 -->
<g id="node30" class="node"><title>29</title>
<ellipse fill="#fff2be" stroke="black" cx="560.046" cy="-378" rx="36.2938" ry="18"/>
<text text-anchor="middle" x="560.046" y="-374.3" font-family="Times,serif" font-size="14.00">version</text>
</g>
<!-- 29&#45;&gt;16 -->
<g id="edge30" class="edge"><title>29&#45;&gt;16</title>
<path fill="none" stroke="black" d="M567.308,-360.055C570.721,-352.091 574.87,-342.411 578.684,-333.51"/>
<polygon fill="black" stroke="black" points="581.92,-334.845 582.642,-324.275 575.486,-332.088 581.92,-334.845"/>
</g>
<!-- 29&#45;&gt;20 -->
<g id="edge34" class="edge"><title>29&#45;&gt;20</title>
<path fill="none" stroke="black" d="M541.595,-362.155C529.616,-352.517 513.793,-339.785 500.368,-328.983"/>
<polygon fill="black" stroke="black" points="502.359,-326.093 492.374,-322.552 497.971,-331.547 502.359,-326.093"/>
</g>
</g>
</svg>
